<svg width="80" height="48" viewBox="0 0 48 48" fill="none" xmlns="http://www.w3.org/2000/svg">
<g filter="url(#filter0_d_1_66)">
<path d="M32.3359 25H29V28.3359H32.3359V25ZM25.6641 11.6641H22.3281V15H25.6641V11.6641ZM32.3359 31.6641H29V35H32.3359V31.6641ZM32.3359 11.6641H29V15H32.3359V11.6641ZM15.6641 0H12.3281V5H15.6641V0ZM39 11.6641H35.6641V15H39V11.6641ZM25.6641 18.3359H22.3281V21.6719H25.6641V18.3359ZM39 18.3359H35.6641V21.6719H39V18.3359ZM39 25H35.6641V28.3359H39V25ZM32.3359 18.3359H29V21.6719H32.3359V18.3359ZM12.3359 18.3359H9V21.6719H12.3359V18.3359ZM12.3359 25H9V28.3359H12.3359V25ZM37.3359 0V6.66406H30.6719V0H17.3359V6.66406H10.6641V0H4V40H44V0H37.3359ZM40.6641 36.6641H7.33594V10H40.6719V36.6641H40.6641ZM12.3359 31.6641H9V35H12.3359V31.6641ZM25.6641 25H22.3281V28.3359H25.6641V25ZM19 31.6641H15.6641V35H19V31.6641ZM25.6641 31.6641H22.3281V35H25.6641V31.6641ZM19 11.6641H15.6641V15H19V11.6641ZM19 18.3359H15.6641V21.6719H19V18.3359ZM19 25H15.6641V28.3359H19V25ZM35.6641 0H32.3281V5H35.6641V0Z" fill="white"/>
</g>
<defs>
<filter id="filter0_d_1_66" x="0" y="0" width="48" height="48" filterUnits="userSpaceOnUse" color-interpolation-filters="sRGB">
<feFlood flood-opacity="0" result="BackgroundImageFix"/>
<feColorMatrix in="SourceAlpha" type="matrix" values="0 0 0 0 0 0 0 0 0 0 0 0 0 0 0 0 0 0 127 0" result="hardAlpha"/>
<feOffset dy="4"/>
<feGaussianBlur stdDeviation="2"/>
<feComposite in2="hardAlpha" operator="out"/>
<feColorMatrix type="matrix" values="0 0 0 0 0 0 0 0 0 0 0 0 0 0 0 0 0 0 0.25 0"/>
<feBlend mode="normal" in2="BackgroundImageFix" result="effect1_dropShadow_1_66"/>
<feBlend mode="normal" in="SourceGraphic" in2="effect1_dropShadow_1_66" result="shape"/>
</filter>
</defs>
</svg>
